<svg xmlns="http://www.w3.org/2000/svg" xmlns:xlink="http://www.w3.org/1999/xlink" viewBox="0 0 193.09 485.17"><defs><style>.cls-1,.cls-6{fill:none;}.cls-2{clip-path:url(#clip-path);}.cls-3{fill:#ee1d42;}.cls-4{clip-path:url(#clip-path-2);}.cls-5{fill:#fff;}.cls-6{stroke:#060706;stroke-linejoin:round;stroke-width:2px;}.cls-7{clip-path:url(#clip-path-3);}.cls-8{clip-path:url(#clip-path-5);}.cls-9{clip-path:url(#clip-path-7);}</style><clipPath id="clip-path" transform="translate(1.86 -0.05)"><path class="cls-1" d="M162.2,391.8s6.75,54.05,15.75,36,4.5-45.8-3.76-49.55a5.49,5.49,0,0,0-2.29-.53c-6.66,0-9.72,14-9.72,14"/></clipPath><clipPath id="clip-path-2" transform="translate(1.86 -0.05)"><rect class="cls-1" width="191.28" height="485.26"/></clipPath><clipPath id="clip-path-3" transform="translate(1.86 -0.05)"><path class="cls-1" d="M36.66,396.15l15.65,13.58c40.54-24-10.55-81.51-10.55-81.51-8.25,4.51-5.09,67.93-5.09,67.93"/></clipPath><clipPath id="clip-path-5" transform="translate(1.86 -0.05)"><path class="cls-1" d="M1.05,387.43c-2.91,27.32,2.32,29.74,2.32,29.74l17.85-37.54s-5.94-6.41-11.44-6.41c-3.88,0-7.57,3.21-8.73,14.21"/></clipPath><clipPath id="clip-path-7" transform="translate(1.86 -0.05)"><path class="cls-1" d="M17.31,227.64a8.79,8.79,0,1,0,8.79-8.79h0a8.79,8.79,0,0,0-8.79,8.79"/></clipPath></defs><g id="Layer_2" data-name="Layer 2"><g id="Layer_1-2" data-name="Layer 1"><g id="Group_132" data-name="Group 132"><g id="Group_100" data-name="Group 100"><g id="Group_85" data-name="Group 85"><g class="cls-2"><g id="Group_84" data-name="Group 84"><rect id="Rectangle_63" data-name="Rectangle 63" class="cls-3" x="164.06" y="377.71" width="24.78" height="68.1"/></g></g></g><g id="Group_87" data-name="Group 87"><g class="cls-4"><g id="Group_86" data-name="Group 86"><path id="Path_32" data-name="Path 32" class="cls-5" d="M95.38,270.94l-3,6.75s-57,18.77-54.79,74.33c-.07,21-.07,40.54-.07,40.54s.82,19.51,32.35,18.76c0,0-15,11.26-53.3-35.28,0,0-18.77-15.76-15,33-.49,12.76,39.05,89.34,136.63,72.82,24.78-6.76,66.64-40.47,19.06-104.32-11.55-17.3-8-69.1,0-82.61,0,0,2-26.28-6.29-30,0,0-38.29,7.51-55.56,6" transform="translate(1.86 -0.05)"/><path id="Path_33" data-name="Path 33" class="cls-6" d="M95.38,270.94l-3,6.75s-57,18.77-54.79,74.33c-.07,21-.07,40.54-.07,40.54s.82,19.51,32.35,18.76c0,0-15,11.26-53.3-35.28,0,0-18.77-15.76-15,33-.49,12.76,39.05,89.34,136.63,72.82,24.78-6.76,66.64-40.47,19.06-104.32-11.55-17.3-8-69.1,0-82.61,0,0,2-26.28-6.29-30C150.94,264.93,112.65,272.44,95.38,270.94Z" transform="translate(1.86 -0.05)"/></g></g></g><g id="Group_89" data-name="Group 89"><g class="cls-7"><g id="Group_88" data-name="Group 88"><rect id="Rectangle_65" data-name="Rectangle 65" class="cls-3" x="35.36" y="328.18" width="59.35" height="81.51"/></g></g></g><g id="Group_91" data-name="Group 91"><g class="cls-4"><g id="Group_90" data-name="Group 90"><path id="Path_35" data-name="Path 35" class="cls-5" d="M73.61,149.32,19.56,27.7S3.8-6.83,32.32,20.94s69.07,100.6,76.58,128.38" transform="translate(1.86 -0.05)"/><path id="Path_36" data-name="Path 36" class="cls-6" d="M73.61,149.32,19.56,27.7S3.8-6.83,32.32,20.94s69.07,100.6,76.58,128.38" transform="translate(1.86 -0.05)"/></g></g></g><g id="Group_93" data-name="Group 93"><g class="cls-8"><g id="Group_92" data-name="Group 92"><rect id="Rectangle_67" data-name="Rectangle 67" class="cls-3" y="373.17" width="23.08" height="43.95"/></g></g></g><g id="Group_95" data-name="Group 95"><g class="cls-4"><g id="Group_94" data-name="Group 94"><path id="Path_38" data-name="Path 38" class="cls-3" d="M93.88,270.94,90,278.58s52.54,1.82,67.23-6.76l-2.3-9.35s-18.25,10-61,8.46" transform="translate(1.86 -0.05)"/><path id="Path_39" data-name="Path 39" class="cls-5" d="M84.12,302.47s-21.77,8.26-16.51-21.77c3-16.52-12,0-12,0l-14.27-15s-9.76-4.5-5.25,7.51l9,11s-9.43,2.29-6.36,13.25a8.35,8.35,0,0,0,8,6.08h2.83L53.35,322" transform="translate(1.86 -0.05)"/><path id="Path_40" data-name="Path 40" class="cls-6" d="M84.12,302.47s-21.77,8.26-16.51-21.77c3-16.52-12,0-12,0l-14.27-15s-9.76-4.5-5.25,7.51l9,11s-9.43,2.29-6.36,13.25a8.35,8.35,0,0,0,8,6.08h2.83L53.35,322" transform="translate(1.86 -0.05)"/><path id="Path_41" data-name="Path 41" class="cls-5" d="M51.84,261.18s83.34,28.52,121.62-12,0-87.09-6.76-93.84-59.31-43.54-114.86,0c-18,17.26-17.27,47.33-17.27,47.33s-17.26,18-5.25,39,45.05,7.51,45.05,7.51-6,9-22.52,12" transform="translate(1.86 -0.05)"/><path id="Path_42" data-name="Path 42" class="cls-6" d="M51.84,261.18s83.34,28.52,121.62-12,0-87.09-6.76-93.84-59.31-43.54-114.86,0c-18,17.26-17.27,47.33-17.27,47.33s-17.26,18-5.25,39,45.05,7.51,45.05,7.51S68.36,258.18,51.84,261.18Z" transform="translate(1.86 -0.05)"/><path id="Path_43" data-name="Path 43" class="cls-5" d="M117.15,165.84S81.88,118.91,79.63,1.05c0,0,121.42,58.18,77.6,182" transform="translate(1.86 -0.05)"/><path id="Path_44" data-name="Path 44" class="cls-6" d="M117.15,165.84S81.88,118.91,79.63,1.05c0,0,121.42,58.18,77.6,182" transform="translate(1.86 -0.05)"/><path id="Path_45" data-name="Path 45" class="cls-3" d="M116.4,135.8S99.14,48.54,93.13,35.49s4.5-14.55,27.78,17.74,13.51,84.08,8.26,93.08c0,0-5.26.76-5.26-19.51Z" transform="translate(1.86 -0.05)"/><path id="Path_46" data-name="Path 46" class="cls-3" d="M118.15,49.47s46.3,54.05,17.77,104.34l-7.5-7.49S143,111.45,118.14,49.47" transform="translate(1.86 -0.05)"/><path id="Path_47" data-name="Path 47" class="cls-5" d="M117.35,197.59a34.52,34.52,0,1,1-34.52-34.52,34.53,34.53,0,0,1,34.52,34.52h0" transform="translate(1.86 -0.05)"/><path id="Path_48" data-name="Path 48" class="cls-6" d="M117.35,197.59a34.52,34.52,0,1,1-34.52-34.52,34.53,34.53,0,0,1,34.52,34.52Z" transform="translate(1.86 -0.05)"/><path id="Path_49" data-name="Path 49" class="cls-3" d="M90,197.59a7.16,7.16,0,1,1-7.16-7.16A7.15,7.15,0,0,1,90,197.59h0" transform="translate(1.86 -0.05)"/></g></g></g><g id="Group_97" data-name="Group 97"><g class="cls-9"><g id="Group_96" data-name="Group 96"><rect id="Rectangle_69" data-name="Rectangle 69" class="cls-3" x="19.17" y="218.8" width="17.57" height="17.57"/></g></g></g><g id="Group_99" data-name="Group 99"><g class="cls-4"><g id="Group_98" data-name="Group 98"><path id="Path_51" data-name="Path 51" class="cls-6" d="M50.5,308.45A67.5,67.5,0,0,0,37.58,352c-.07,21-.07,40.54-.07,40.54s.82,19.52,32.35,18.77c0,0-15,11.26-53.3-35.28,0,0-18.77-15.76-15,33-.49,12.76,39,89.34,136.63,72.82,24.78-6.76,66.64-40.47,19.06-104.31-11.55-17.31-8-69.11,0-82.62,0,0,2-26.28-6.29-30,0,0-38.29,7.51-55.56,6l-3,6.75A96.23,96.23,0,0,0,66.9,291.8" transform="translate(1.86 -0.05)"/></g></g></g></g></g></g></g></svg>