<svg xmlns="http://www.w3.org/2000/svg" xmlns:xlink="http://www.w3.org/1999/xlink" viewBox="0 0 245.52 387.4"><defs><style>.cls-1,.cls-3{fill:none;}.cls-2{fill:#fff;}.cls-3{stroke:#060706;stroke-linejoin:round;stroke-width:2px;}.cls-4{fill:#ee1d42;}.cls-5{clip-path:url(#clip-path);}</style><clipPath id="clip-path"><path class="cls-1" d="M3.92,316.29a12.23,12.23,0,1,0,12.23-12.23h0A12.23,12.23,0,0,0,3.92,316.29"/></clipPath></defs><g id="Layer_2" data-name="Layer 2"><g id="Layer_1-2" data-name="Layer 1"><path id="Path_35" data-name="Path 35" class="cls-2" d="M82.25,207.32,7,38.09S-14.88-10,24.8,28.69s96.1,140,106.55,178.63"/><path id="Path_36" data-name="Path 36" class="cls-3" d="M82.25,207.32,7,38.09S-14.88-10,24.8,28.69s96.1,140,106.55,178.63"/><path id="Path_38" data-name="Path 38" class="cls-4" d="M110.46,376.54l-5.4,10.64s73.11,2.52,93.55-9.41l-3.21-13S170,378.63,110.47,376.54"/><path id="Path_41" data-name="Path 41" class="cls-2" d="M52,363s116,39.7,169.22-16.71,0-121.17-9.4-130.57-82.52-60.59-159.82,0c-25.07,24-24,65.86-24,65.86s-24,25-7.31,54.27,62.68,10.44,62.68,10.44S75,358.79,52,363"/><path id="Path_42" data-name="Path 42" class="cls-3" d="M52,363s116,39.7,169.22-16.71,0-121.17-9.4-130.57-82.52-60.59-159.82,0c-25.07,24-24,65.86-24,65.86s-24,25-7.31,54.27,62.68,10.44,62.68,10.44S74.94,358.79,52,363Z"/><path id="Path_43" data-name="Path 43" class="cls-2" d="M142.84,230.3S93.77,165,90.63,1c0,0,169,81,108,253.32"/><path id="Path_44" data-name="Path 44" class="cls-3" d="M142.84,230.3S93.77,165,90.63,1c0,0,169,81,108,253.32"/><path id="Path_45" data-name="Path 45" class="cls-4" d="M141.79,188.51s-24-121.42-32.38-139.58,6.27-20.24,38.65,24.68,18.8,117,11.49,129.53c0,0-7.3,1-7.3-27.16Z"/><path id="Path_46" data-name="Path 46" class="cls-4" d="M144.22,68.38S208.65,143.6,169,213.57l-10.44-10.43s20.26-48.51-14.29-134.76"/><path id="Path_47" data-name="Path 47" class="cls-2" d="M143.11,274.48a48,48,0,1,1-48-48,48,48,0,0,1,48,48h0"/><path id="Path_48" data-name="Path 48" class="cls-3" d="M143.11,274.48a48,48,0,1,1-48-48,48,48,0,0,1,48,48Z"/><path id="Path_49" data-name="Path 49" class="cls-4" d="M105.05,274.48a10,10,0,1,1-10-10,10,10,0,0,1,10,10h0"/><g class="cls-5"><g id="Group_96" data-name="Group 96"><rect id="Rectangle_69" data-name="Rectangle 69" class="cls-4" x="3.92" y="304.06" width="24.45" height="24.45"/></g></g></g></g></svg>